<mxfile host="Electron" modified="2023-11-06T03:00:39.144Z" agent="Mozilla/5.0 (Windows NT 10.0; Win64; x64) AppleWebKit/537.36 (KHTML, like Gecko) draw.io/22.0.2 Chrome/114.0.5735.289 Electron/25.8.4 Safari/537.36" etag="F9Q5625FqKD61ya-rZay" version="22.0.2" type="device">
  <diagram name="Page-1" id="2YBvvXClWsGukQMizWep">
    <mxGraphModel dx="733" dy="443" grid="1" gridSize="10" guides="1" tooltips="1" connect="1" arrows="1" fold="1" page="1" pageScale="1" pageWidth="850" pageHeight="1100" math="0" shadow="0">
      <root>
        <mxCell id="0" />
        <mxCell id="1" parent="0" />
        <mxCell id="aM9ryv3xv72pqoxQDRHE-1" value="admin:&lt;br&gt;Funcionário&amp;nbsp;" style="shape=umlLifeline;perimeter=lifelinePerimeter;whiteSpace=wrap;html=1;container=0;dropTarget=0;collapsible=0;recursiveResize=0;outlineConnect=0;portConstraint=eastwest;newEdgeStyle={&quot;edgeStyle&quot;:&quot;elbowEdgeStyle&quot;,&quot;elbow&quot;:&quot;vertical&quot;,&quot;curved&quot;:0,&quot;rounded&quot;:0};" parent="1" vertex="1">
          <mxGeometry x="80" y="120" width="80" height="600" as="geometry" />
        </mxCell>
        <mxCell id="aM9ryv3xv72pqoxQDRHE-3" value="" style="html=1;verticalAlign=bottom;startArrow=oval;endArrow=block;startSize=8;edgeStyle=elbowEdgeStyle;elbow=vertical;curved=0;rounded=0;" parent="aM9ryv3xv72pqoxQDRHE-1" target="uXZNI4YIFWPXd48hCcIp-16" edge="1">
          <mxGeometry relative="1" as="geometry">
            <mxPoint x="-19.5" y="60" as="sourcePoint" />
            <mxPoint x="30" y="60" as="targetPoint" />
          </mxGeometry>
        </mxCell>
        <mxCell id="uXZNI4YIFWPXd48hCcIp-13" value="" style="html=1;points=[[0,0,0,0,5],[0,1,0,0,-5],[1,0,0,0,5],[1,1,0,0,-5]];perimeter=orthogonalPerimeter;outlineConnect=0;targetShapes=umlLifeline;portConstraint=eastwest;newEdgeStyle={&quot;curved&quot;:0,&quot;rounded&quot;:0};" vertex="1" parent="aM9ryv3xv72pqoxQDRHE-1">
          <mxGeometry x="35" y="165" width="10" height="115" as="geometry" />
        </mxCell>
        <mxCell id="uXZNI4YIFWPXd48hCcIp-16" value="" style="html=1;points=[[0,0,0,0,5],[0,1,0,0,-5],[1,0,0,0,5],[1,1,0,0,-5]];perimeter=orthogonalPerimeter;outlineConnect=0;targetShapes=umlLifeline;portConstraint=eastwest;newEdgeStyle={&quot;curved&quot;:0,&quot;rounded&quot;:0};" vertex="1" parent="aM9ryv3xv72pqoxQDRHE-1">
          <mxGeometry x="35" y="60" width="10" height="80" as="geometry" />
        </mxCell>
        <mxCell id="uXZNI4YIFWPXd48hCcIp-17" value="" style="html=1;points=[[0,0,0,0,5],[0,1,0,0,-5],[1,0,0,0,5],[1,1,0,0,-5]];perimeter=orthogonalPerimeter;outlineConnect=0;targetShapes=umlLifeline;portConstraint=eastwest;newEdgeStyle={&quot;curved&quot;:0,&quot;rounded&quot;:0};" vertex="1" parent="aM9ryv3xv72pqoxQDRHE-1">
          <mxGeometry x="45" y="70" width="10" height="60" as="geometry" />
        </mxCell>
        <mxCell id="aM9ryv3xv72pqoxQDRHE-5" value="Sistema" style="shape=umlLifeline;perimeter=lifelinePerimeter;whiteSpace=wrap;html=1;container=0;dropTarget=0;collapsible=0;recursiveResize=0;outlineConnect=0;portConstraint=eastwest;newEdgeStyle={&quot;edgeStyle&quot;:&quot;elbowEdgeStyle&quot;,&quot;elbow&quot;:&quot;vertical&quot;,&quot;curved&quot;:0,&quot;rounded&quot;:0};" parent="1" vertex="1">
          <mxGeometry x="400" y="120" width="80" height="600" as="geometry" />
        </mxCell>
        <mxCell id="aM9ryv3xv72pqoxQDRHE-6" value="" style="html=1;points=[];perimeter=orthogonalPerimeter;outlineConnect=0;targetShapes=umlLifeline;portConstraint=eastwest;newEdgeStyle={&quot;edgeStyle&quot;:&quot;elbowEdgeStyle&quot;,&quot;elbow&quot;:&quot;vertical&quot;,&quot;curved&quot;:0,&quot;rounded&quot;:0};" parent="aM9ryv3xv72pqoxQDRHE-5" vertex="1">
          <mxGeometry x="35" y="180" width="10" height="80" as="geometry" />
        </mxCell>
        <mxCell id="uXZNI4YIFWPXd48hCcIp-35" value="" style="html=1;points=[[0,0,0,0,5],[0,1,0,0,-5],[1,0,0,0,5],[1,1,0,0,-5]];perimeter=orthogonalPerimeter;outlineConnect=0;targetShapes=umlLifeline;portConstraint=eastwest;newEdgeStyle={&quot;curved&quot;:0,&quot;rounded&quot;:0};" vertex="1" parent="aM9ryv3xv72pqoxQDRHE-5">
          <mxGeometry x="35" y="80" width="10" height="50" as="geometry" />
        </mxCell>
        <mxCell id="uXZNI4YIFWPXd48hCcIp-1" value="dados:&lt;br&gt;BancoDados" style="shape=umlLifeline;perimeter=lifelinePerimeter;whiteSpace=wrap;html=1;container=1;dropTarget=0;collapsible=0;recursiveResize=0;outlineConnect=0;portConstraint=eastwest;newEdgeStyle={&quot;curved&quot;:0,&quot;rounded&quot;:0};" vertex="1" parent="1">
          <mxGeometry x="560" y="120" width="80" height="600" as="geometry" />
        </mxCell>
        <mxCell id="uXZNI4YIFWPXd48hCcIp-3" value="" style="html=1;points=[];perimeter=orthogonalPerimeter;outlineConnect=0;targetShapes=umlLifeline;portConstraint=eastwest;newEdgeStyle={&quot;edgeStyle&quot;:&quot;elbowEdgeStyle&quot;,&quot;elbow&quot;:&quot;vertical&quot;,&quot;curved&quot;:0,&quot;rounded&quot;:0};" vertex="1" parent="uXZNI4YIFWPXd48hCcIp-1">
          <mxGeometry x="35" y="190" width="10" height="50" as="geometry" />
        </mxCell>
        <mxCell id="uXZNI4YIFWPXd48hCcIp-48" value="4. Valida Dados" style="html=1;align=left;spacingLeft=2;endArrow=block;rounded=0;edgeStyle=orthogonalEdgeStyle;curved=0;rounded=0;" edge="1" target="uXZNI4YIFWPXd48hCcIp-3" parent="uXZNI4YIFWPXd48hCcIp-1" source="uXZNI4YIFWPXd48hCcIp-3">
          <mxGeometry relative="1" as="geometry">
            <mxPoint x="50" y="200" as="sourcePoint" />
            <Array as="points">
              <mxPoint x="70" y="200" />
              <mxPoint x="70" y="230" />
            </Array>
            <mxPoint x="55" y="230" as="targetPoint" />
          </mxGeometry>
        </mxCell>
        <mxCell id="uXZNI4YIFWPXd48hCcIp-6" value="2. Informa o CPF/CNPJ do cliente" style="html=1;verticalAlign=bottom;endArrow=block;curved=0;rounded=0;" edge="1" parent="1" source="uXZNI4YIFWPXd48hCcIp-13" target="aM9ryv3xv72pqoxQDRHE-6">
          <mxGeometry x="0.0285" width="80" relative="1" as="geometry">
            <mxPoint x="150" y="300" as="sourcePoint" />
            <mxPoint x="365" y="300" as="targetPoint" />
            <Array as="points">
              <mxPoint x="330" y="300" />
            </Array>
            <mxPoint as="offset" />
          </mxGeometry>
        </mxCell>
        <mxCell id="uXZNI4YIFWPXd48hCcIp-10" value="3. Consultar cliente" style="html=1;verticalAlign=bottom;endArrow=block;curved=0;rounded=0;" edge="1" parent="1">
          <mxGeometry x="0.0057" width="80" relative="1" as="geometry">
            <mxPoint x="445" y="310" as="sourcePoint" />
            <mxPoint x="595" y="310" as="targetPoint" />
            <mxPoint as="offset" />
          </mxGeometry>
        </mxCell>
        <mxCell id="uXZNI4YIFWPXd48hCcIp-12" value="5.&amp;nbsp; Retornar dados" style="html=1;verticalAlign=bottom;endArrow=open;dashed=1;endSize=8;curved=0;rounded=0;" edge="1" parent="1">
          <mxGeometry relative="1" as="geometry">
            <mxPoint x="600" y="360" as="sourcePoint" />
            <mxPoint x="445" y="360" as="targetPoint" />
          </mxGeometry>
        </mxCell>
        <mxCell id="uXZNI4YIFWPXd48hCcIp-23" value="1. Executa &quot;Gerenciar Cliente&quot;&amp;nbsp;" style="html=1;verticalAlign=bottom;endArrow=block;curved=0;rounded=0;" edge="1" parent="1">
          <mxGeometry width="80" relative="1" as="geometry">
            <mxPoint x="135" y="200" as="sourcePoint" />
            <mxPoint x="435" y="200" as="targetPoint" />
          </mxGeometry>
        </mxCell>
        <mxCell id="uXZNI4YIFWPXd48hCcIp-26" value="Abertura de conta" style="shape=umlFrame;whiteSpace=wrap;html=1;pointerEvents=0;width=130;height=30;" vertex="1" parent="1">
          <mxGeometry x="40" y="60" width="680" height="700" as="geometry" />
        </mxCell>
        <mxCell id="uXZNI4YIFWPXd48hCcIp-33" value="Cliente" style="shape=umlLifeline;perimeter=lifelinePerimeter;whiteSpace=wrap;html=1;container=1;dropTarget=0;collapsible=0;recursiveResize=0;outlineConnect=0;portConstraint=eastwest;newEdgeStyle={&quot;curved&quot;:0,&quot;rounded&quot;:0};" vertex="1" parent="1">
          <mxGeometry x="240" y="120" width="80" height="600" as="geometry" />
        </mxCell>
        <mxCell id="uXZNI4YIFWPXd48hCcIp-41" value="" style="html=1;points=[[0,0,0,0,5],[0,1,0,0,-5],[1,0,0,0,5],[1,1,0,0,-5]];perimeter=orthogonalPerimeter;outlineConnect=0;targetShapes=umlLifeline;portConstraint=eastwest;newEdgeStyle={&quot;curved&quot;:0,&quot;rounded&quot;:0};" vertex="1" parent="uXZNI4YIFWPXd48hCcIp-33">
          <mxGeometry x="35" y="310" width="10" height="150" as="geometry" />
        </mxCell>
        <mxCell id="uXZNI4YIFWPXd48hCcIp-39" value="6. Exibir informações do cliente" style="html=1;verticalAlign=bottom;endArrow=open;dashed=1;endSize=8;curved=0;rounded=0;" edge="1" parent="1">
          <mxGeometry relative="1" as="geometry">
            <mxPoint x="435" y="380" as="sourcePoint" />
            <mxPoint x="125" y="380" as="targetPoint" />
            <Array as="points">
              <mxPoint x="380" y="380" />
            </Array>
          </mxGeometry>
        </mxCell>
        <mxCell id="uXZNI4YIFWPXd48hCcIp-40" value="" style="html=1;points=[[0,0,0,0,5],[0,1,0,0,-5],[1,0,0,0,5],[1,1,0,0,-5]];perimeter=orthogonalPerimeter;outlineConnect=0;targetShapes=umlLifeline;portConstraint=eastwest;newEdgeStyle={&quot;curved&quot;:0,&quot;rounded&quot;:0};" vertex="1" parent="1">
          <mxGeometry x="115" y="420" width="10" height="260" as="geometry" />
        </mxCell>
        <mxCell id="uXZNI4YIFWPXd48hCcIp-42" value="7. Solicitar senha da conta" style="html=1;verticalAlign=bottom;endArrow=block;curved=0;rounded=0;" edge="1" parent="1" target="uXZNI4YIFWPXd48hCcIp-41">
          <mxGeometry x="-0.0019" width="80" relative="1" as="geometry">
            <mxPoint x="125" y="430" as="sourcePoint" />
            <mxPoint x="270" y="430" as="targetPoint" />
            <mxPoint as="offset" />
          </mxGeometry>
        </mxCell>
        <mxCell id="uXZNI4YIFWPXd48hCcIp-43" value="8. Fornecer senha" style="html=1;verticalAlign=bottom;endArrow=open;dashed=1;endSize=8;curved=0;rounded=0;" edge="1" parent="1" source="uXZNI4YIFWPXd48hCcIp-41">
          <mxGeometry relative="1" as="geometry">
            <mxPoint x="270" y="470" as="sourcePoint" />
            <mxPoint x="125" y="469.8" as="targetPoint" />
            <Array as="points">
              <mxPoint x="260" y="470" />
            </Array>
          </mxGeometry>
        </mxCell>
        <mxCell id="uXZNI4YIFWPXd48hCcIp-49" value="9. Solicitar valor a ser &lt;br&gt;depositado" style="html=1;verticalAlign=bottom;endArrow=block;curved=0;rounded=0;" edge="1" parent="1">
          <mxGeometry width="80" relative="1" as="geometry">
            <mxPoint x="125" y="520" as="sourcePoint" />
            <mxPoint x="275" y="520" as="targetPoint" />
          </mxGeometry>
        </mxCell>
        <mxCell id="uXZNI4YIFWPXd48hCcIp-51" value="10. Fornecer valor" style="html=1;verticalAlign=bottom;endArrow=open;dashed=1;endSize=8;curved=0;rounded=0;" edge="1" parent="1">
          <mxGeometry relative="1" as="geometry">
            <mxPoint x="275" y="560" as="sourcePoint" />
            <mxPoint x="125" y="560" as="targetPoint" />
          </mxGeometry>
        </mxCell>
        <mxCell id="uXZNI4YIFWPXd48hCcIp-53" value="11. Inicia processo de deposito" style="html=1;verticalAlign=bottom;endArrow=block;curved=0;rounded=0;" edge="1" parent="1">
          <mxGeometry width="80" relative="1" as="geometry">
            <mxPoint x="125" y="610" as="sourcePoint" />
            <mxPoint x="435" y="610" as="targetPoint" />
          </mxGeometry>
        </mxCell>
        <mxCell id="uXZNI4YIFWPXd48hCcIp-54" value="" style="html=1;points=[[0,0,0,0,5],[0,1,0,0,-5],[1,0,0,0,5],[1,1,0,0,-5]];perimeter=orthogonalPerimeter;outlineConnect=0;targetShapes=umlLifeline;portConstraint=eastwest;newEdgeStyle={&quot;curved&quot;:0,&quot;rounded&quot;:0};" vertex="1" parent="1">
          <mxGeometry x="435" y="610" width="10" height="70" as="geometry" />
        </mxCell>
        <mxCell id="uXZNI4YIFWPXd48hCcIp-57" value="Finaliza o processo" style="html=1;verticalAlign=bottom;endArrow=open;dashed=1;endSize=8;curved=0;rounded=0;" edge="1" parent="1" target="uXZNI4YIFWPXd48hCcIp-40">
          <mxGeometry relative="1" as="geometry">
            <mxPoint x="435" y="660" as="sourcePoint" />
            <mxPoint x="355" y="660" as="targetPoint" />
          </mxGeometry>
        </mxCell>
        <mxCell id="uXZNI4YIFWPXd48hCcIp-59" value="12. Executa&lt;br style=&quot;text-align: center;&quot;&gt;&lt;span style=&quot;text-align: center;&quot;&gt;&quot;Realizar Depósito&quot;&lt;/span&gt;" style="html=1;align=left;spacingLeft=2;endArrow=block;rounded=0;edgeStyle=orthogonalEdgeStyle;curved=0;rounded=0;" edge="1" parent="1">
          <mxGeometry relative="1" as="geometry">
            <mxPoint x="445" y="630" as="sourcePoint" />
            <Array as="points">
              <mxPoint x="475" y="630" />
              <mxPoint x="475" y="660" />
            </Array>
            <mxPoint x="445" y="660" as="targetPoint" />
          </mxGeometry>
        </mxCell>
      </root>
    </mxGraphModel>
  </diagram>
</mxfile>
